<?xml version="1.0" standalone="no"?>
<!DOCTYPE svg PUBLIC "-//W3C//DTD SVG 20010904//EN"
 "http://www.w3.org/TR/2001/REC-SVG-20010904/DTD/svg10.dtd">
<svg version="1.0" xmlns="http://www.w3.org/2000/svg"
 width="482.000000pt" height="482.000000pt" viewBox="0 0 482.000000 482.000000"
 preserveAspectRatio="xMidYMid meet">
<metadata>
Created by potrace 1.14, written by Peter Selinger 2001-2017
</metadata>
<g transform="translate(0.000000,482.000000) scale(0.100000,-0.100000)"
fill="#000000" stroke="none">
<path d="M2287 4804 c-1 -1 -40 -5 -87 -8 -47 -4 -96 -8 -110 -11 -250 -43
-304 -56 -478 -117 -215 -75 -412 -178 -602 -314 -52 -37 -97 -70 -100 -73 -3
-3 -34 -31 -70 -61 -422 -358 -706 -872 -805 -1455 -15 -89 -20 -191 -20 -375
1 -212 6 -270 36 -430 18 -98 20 -105 25 -122 3 -9 7 -25 9 -36 16 -86 102
-316 166 -447 370 -756 1109 -1269 1934 -1342 229 -20 506 -5 730 41 182 37
424 124 605 219 701 365 1184 1063 1276 1842 3 33 8 74 10 90 6 48 5 355 -1
405 -3 25 -8 68 -11 95 -3 28 -7 57 -9 65 -2 8 -7 35 -10 60 -4 25 -16 83 -27
130 -123 520 -419 986 -843 1325 -67 54 -288 205 -299 205 -3 0 -27 13 -53 28
-43 24 -102 53 -238 113 -110 48 -388 126 -518 144 -27 3 -57 8 -66 10 -64 12
-433 28 -444 19z m328 -408 c56 -7 82 -10 147 -22 29 -4 156 -32 173 -38 6 -1
30 -8 55 -15 69 -19 249 -91 308 -123 28 -15 78 -42 110 -59 255 -138 534
-407 704 -682 101 -162 215 -434 247 -587 6 -30 14 -66 17 -80 24 -114 32
-224 29 -420 -1 -118 -5 -226 -9 -240 -3 -13 -8 -42 -11 -65 -22 -155 -115
-432 -192 -572 -63 -116 -77 -140 -122 -206 -231 -341 -561 -604 -941 -750
-114 -44 -273 -89 -360 -102 -25 -4 -54 -9 -65 -11 -114 -24 -470 -24 -590 0
-11 2 -38 6 -60 10 -261 46 -537 159 -770 316 -439 296 -764 801 -845 1310 -6
41 -14 86 -17 100 -13 61 -11 399 3 500 54 389 209 739 462 1040 73 87 192
204 267 261 17 13 32 26 35 30 16 21 241 160 332 204 171 85 405 163 543 181
17 2 40 6 53 8 12 3 59 8 105 12 45 3 83 7 84 8 6 5 253 -2 308 -8z"/>
<path d="M2185 3212 c-145 -16 -301 -60 -735 -204 -368 -123 -314 -113 -564
-105 l-78 2 -34 -39 c-46 -53 -90 -176 -109 -301 -14 -96 -3 -340 20 -420 13
-45 21 -55 77 -92 77 -52 144 -82 181 -83 24 0 27 4 27 33 1 137 95 311 205
379 89 55 216 59 356 13 135 -45 202 -148 244 -376 l5 -26 158 -2 c87 0 313
-3 503 -7 589 -11 611 -10 626 4 7 8 11 17 8 22 -9 15 25 160 52 216 45 96
137 169 243 193 22 5 74 9 116 9 247 0 379 -135 385 -393 2 -69 3 -73 23 -69
11 2 37 7 56 10 142 26 276 163 311 319 22 98 3 132 -136 249 -141 119 -208
149 -355 161 -230 17 -368 64 -765 262 -303 151 -420 198 -570 227 -81 16
-196 24 -250 18z m135 -136 c178 -32 358 -110 525 -229 l40 -29 -130 7 c-71 4
-157 8 -190 10 -33 2 -105 6 -160 9 -240 14 -293 18 -345 21 -30 2 -113 7
-185 10 -71 4 -143 9 -160 10 -16 2 -63 3 -102 4 -40 0 -73 5 -73 10 0 13 161
94 250 126 168 61 366 80 530 51z"/>
<path d="M3390 2396 c-72 -19 -122 -47 -173 -98 -156 -154 -138 -416 38 -550
200 -152 500 -56 569 183 56 194 -37 383 -224 453 -58 21 -153 27 -210 12z"/>
<path d="M1292 2384 c-164 -42 -270 -172 -277 -339 -15 -343 401 -514 634
-260 65 72 93 145 93 245 1 236 -223 412 -450 354z"/>
</g>
</svg>
